<svg width="31" height="20" viewBox="0 0 31 20" fill="none" xmlns="http://www.w3.org/2000/svg">
<path fill-rule="evenodd" clip-rule="evenodd" d="M6.99975 7.91801C6.99975 6.37282 5.7468 5.12129 4.19985 5.12129C1.88013 5.12129 0 3.24329 0 0.926208H1.39995C1.39995 2.4714 2.65291 3.72293 4.19985 3.72293C6.51957 3.72293 8.3997 5.60092 8.3997 7.91801C8.3997 9.46319 9.65266 10.7147 11.1996 10.7147C13.5193 10.7147 15.3995 12.5927 15.3995 14.9098C15.3995 16.455 16.6524 17.7065 18.1994 17.7065V19.1049C15.8796 19.1049 13.9995 17.2269 13.9995 14.9098C13.9995 13.3646 12.7465 12.1131 11.1996 12.1131C8.87989 12.1131 6.99975 10.2351 6.99975 7.91801ZM24.8239 6.55461L30.7639 12.4878L29.7741 13.4765L23.8342 7.54325L24.8239 6.55461Z" fill="#6C5CE7"/>
</svg>
